<svg width="1200" height="630" viewBox="0 0 1200 630" xmlns="http://www.w3.org/2000/svg">
  <defs>
    <filter id="shadow" x="-20%" y="-20%" width="140%" height="140%">
      <feDropShadow dx="0" dy="22" stdDeviation="24" flood-color="#293174" flood-opacity=".18"/>
    </filter>
    <pattern id="grain" width="120" height="120" patternUnits="userSpaceOnUse">
      <circle cx="16" cy="22" r="1" fill="#101426" opacity=".05"/>
      <circle cx="78" cy="69" r="1" fill="#101426" opacity=".04"/>
      <circle cx="110" cy="31" r=".8" fill="#101426" opacity=".04"/>
    </pattern>
  </defs>
  <rect width="1200" height="630" fill="#F5F7FF"/>
  <circle cx="1040" cy="60" r="300" fill="#DDE0FF" opacity=".85"/>
  <rect width="1200" height="630" fill="url(#grain)"/>

  <rect x="64" y="52" width="50" height="50" rx="15" fill="#4B57E3"/>
  <circle cx="105" cy="61" r="5" fill="#B9F3D4"/>
  <text x="89" y="84" fill="#fff" font-family="Arial,sans-serif" font-size="15" font-weight="800" text-anchor="middle">HM</text>
  <text x="130" y="84" fill="#101426" font-family="Arial,sans-serif" font-size="20" font-weight="700">Hussein Motiwala</text>
  <text x="1136" y="82" fill="#62687B" font-family="monospace" font-size="14" text-anchor="end">DUBLIN · BACKEND ENGINEER</text>

  <text x="64" y="238" fill="#101426" font-family="Arial,sans-serif" font-size="71" font-weight="800" letter-spacing="-4">Backend systems</text>
  <text x="64" y="316" fill="#101426" font-family="Arial,sans-serif" font-size="71" font-weight="800" letter-spacing="-4">that make</text>
  <text x="64" y="394" fill="#4B57E3" font-family="Arial,sans-serif" font-size="71" font-weight="800" letter-spacing="-4">data move.</text>
  <text x="68" y="454" fill="#62687B" font-family="Arial,sans-serif" font-size="20">Java · SQL · Python · AI &amp; Analytics</text>

  <g filter="url(#shadow)">
    <rect x="760" y="155" width="376" height="340" rx="34" fill="#101426" transform="rotate(2 948 325)"/>
  </g>
  <path d="M780 285 C850 225 892 380 955 300 C1010 230 1055 410 1120 368" fill="none" stroke="#DDE0FF" stroke-width="4" opacity=".3"/>
  <path d="M780 285 C850 225 892 380 955 300 C1010 230 1055 410 1120 368" fill="none" stroke="#B9F3D4" stroke-width="4" stroke-dasharray="3 15"/>
  <text x="790" y="244" fill="#fff" font-family="Arial,sans-serif" font-size="42" font-weight="800">145M</text>
  <text x="790" y="266" fill="#98A0B7" font-family="monospace" font-size="12">RECORDS</text>
  <text x="910" y="337" fill="#fff" font-family="Arial,sans-serif" font-size="37" font-weight="800">64</text>
  <text x="910" y="357" fill="#98A0B7" font-family="monospace" font-size="12">PARTITIONS</text>
  <rect x="1000" y="385" width="144" height="82" rx="18" fill="#B9F3D4" transform="rotate(-3 1072 426)"/>
  <text x="1015" y="425" fill="#101426" font-family="Arial,sans-serif" font-size="32" font-weight="800">+43%</text>
  <text x="1015" y="445" fill="#101426" font-family="monospace" font-size="10">THROUGHPUT</text>

  <line x1="64" y1="554" x2="1136" y2="554" stroke="#101426" opacity=".14"/>
  <text x="64" y="590" fill="#62687B" font-family="monospace" font-size="14">husseinmotiwala.in</text>
  <text x="1136" y="590" fill="#101426" font-family="Arial,sans-serif" font-size="15" font-weight="700" text-anchor="end">Open to backend roles ↗</text>
</svg>
